<?xml version="1.0" standalone="no"?>
<!DOCTYPE svg PUBLIC "-//W3C//DTD SVG 20010904//EN"
 "http://www.w3.org/TR/2001/REC-SVG-20010904/DTD/svg10.dtd">
<svg version="1.0" xmlns="http://www.w3.org/2000/svg"
 width="1000.000000pt" height="1000.000000pt" viewBox="0 0 1000.000000 1000.000000"
 preserveAspectRatio="xMidYMid meet">
<metadata>
Created by potrace 1.14, written by Peter Selinger 2001-2017
</metadata>
<g transform="translate(0.000000,1000.000000) scale(0.100000,-0.100000)"
fill="#000000" stroke="none">
<path d="M0 5000 l0 -5000 5000 0 5000 0 0 5000 0 5000 -5000 0 -5000 0 0
-5000z m7100 2075 c0 -413 -3 -525 -12 -525 -7 0 -251 -18 -543 -40 -291 -22
-542 -40 -557 -40 l-28 0 0 490 c0 270 1 490 3 490 188 27 1099 148 1115 149
l22 1 0 -525z m-3520 -364 l0 -419 -57 -6 c-32 -3 -186 -15 -343 -26 -157 -11
-300 -21 -317 -23 l-33 -3 0 401 0 400 343 46 c188 26 357 47 375 48 l32 1 0
-419z m3520 -895 l0 -524 -522 -7 c-288 -4 -543 -5 -568 -3 l-45 3 -3 488 c-2
385 0 488 10 492 10 3 882 61 1106 74 l22 1 0 -524z m-2510 -86 l0 -450 -282
0 c-156 0 -347 -3 -425 -7 l-143 -6 0 431 0 432 38 1 c20 0 190 11 377 23 187
13 361 24 388 25 l47 1 0 -450z m-1012 -32 l-3 -423 -372 -3 -373 -2 0 400 c0
220 3 400 8 401 7 1 680 45 720 48 l22 1 -2 -422z m-240 -595 l242 -6 0 -419
c0 -391 -1 -418 -17 -418 -35 0 -649 41 -690 46 l-43 5 0 400 0 399 133 0 c74
0 242 -3 375 -7z m2410 -505 l2 -488 -42 5 c-24 3 -221 16 -438 30 -217 14
-419 28 -447 31 l-53 5 0 455 0 454 488 -2 487 -3 3 -487z m1245 475 l107 -6
0 -523 0 -523 -47 5 c-27 2 -255 18 -508 34 -253 16 -488 32 -522 36 l-63 6 0
489 0 489 463 0 c255 0 512 -3 570 -7z m-3420 -992 c4 -4 5 -195 1 -425 -6
-374 -9 -416 -23 -412 -9 3 -175 26 -368 52 l-353 48 0 401 0 400 368 -28
c202 -16 371 -32 375 -36z m3009 -231 c280 -22 510 -40 513 -40 3 0 5 -236 5
-525 0 -289 -3 -525 -7 -525 -18 0 -1109 151 -1120 155 -10 3 -13 112 -13 495
l0 491 58 -6 c31 -3 285 -24 564 -45z"/>
</g>
</svg>
