<?xml version="1.0" encoding="UTF-8"?>
<svg width="650.47" height="397.84" version="1.1" viewBox="0 0 650.47 397.84" xml:space="preserve" xmlns="http://www.w3.org/2000/svg" xmlns:cc="http://creativecommons.org/ns#" xmlns:dc="http://purl.org/dc/elements/1.1/" xmlns:rdf="http://www.w3.org/1999/02/22-rdf-syntax-ns#"><metadata><rdf:RDF><cc:Work rdf:about=""><dc:format>image/svg+xml</dc:format><dc:type rdf:resource="http://purl.org/dc/dcmitype/StillImage"/><dc:title/></cc:Work></rdf:RDF></metadata>
<path d="m3.0884 72.692c5.3852-20.464 19.203-39.827 36.815-51.588 30.184-20.156 68.629-20.348 98.011-0.48976 4.6926 3.1715 47.886 41.795 95.986 85.831 48.1 44.035 87.958 80.064 88.575 80.064 0.61672 0 41.534-37.089 90.928-82.419 49.394-45.331 93.629-85.014 98.302-88.186 16.048-10.893 38.352-16.666 57.013-14.755 41.793 4.2786 74.45 36.149 80.325 78.39 3.12 22.432-5.423 50.247-20.798 67.713-8.586 9.7543-242.14 223.88-253.84 232.72-18.683 14.122-44.096 20.045-67.132 15.647-14.395-2.7484-27.131-8.2384-37.534-16.179-10.766-8.2178-244.34-222.32-250.08-229.24-6.5544-7.8917-13.651-22.493-16.66-34.279-2.9629-11.605-2.9209-31.793 0.09-43.235z" fill="#6b9d3e" stroke="#6b9d3e" stroke-width="1.5724"/></svg>
