<?xml version="1.0" standalone="no"?>
<!DOCTYPE svg PUBLIC "-//W3C//DTD SVG 20010904//EN"
 "http://www.w3.org/TR/2001/REC-SVG-20010904/DTD/svg10.dtd">
<svg version="1.0" xmlns="http://www.w3.org/2000/svg"
 width="428.000000pt" height="485.000000pt" viewBox="0 0 428.000000 485.000000"
 preserveAspectRatio="xMidYMid meet">

<g transform="translate(0.000000,485.000000) scale(0.100000,-0.100000)"
fill="#000000" stroke="none">
<path d="M0 2425 l0 -2425 2140 0 2140 0 0 2425 0 2425 -2140 0 -2140 0 0
-2425z m4268 1370 c-3 -3 -1093 -85 -1115 -85 -10 0 -13 105 -13 490 l0 490
33 1 c17 0 271 33 562 72 l530 72 3 -519 c1 -285 1 -520 0 -521z m-3518 147
l0 -418 -362 -27 c-200 -15 -366 -28 -370 -27 -7 0 -12 789 -5 790 35 7 699
98 715 99 l22 1 0 -418z m3520 -892 l0 -520 -565 -2 -565 -3 0 488 c0 268 1
487 3 488 14 3 1001 67 1055 68 l72 1 0 -520z m-2510 -83 l0 -444 -287 -6
c-157 -4 -346 -7 -420 -7 l-133 0 0 425 0 425 28 1 c15 0 176 11 357 23 182
13 358 24 393 25 l62 1 0 -443z m-1010 -37 l0 -420 -370 0 -370 0 0 395 c0
369 1 395 18 396 9 0 166 11 347 24 182 12 340 23 353 24 l22 1 0 -420z m0
-1011 l0 -422 -77 6 c-43 3 -199 13 -348 22 -148 9 -280 18 -292 21 l-23 4 0
395 0 395 370 0 370 0 0 -421z m2002 401 l168 0 0 -480 0 -480 -22 0 c-13 0
-228 14 -478 30 -250 17 -458 30 -462 30 -4 0 -8 205 -8 457 l0 456 317 -6
c174 -4 392 -7 485 -7z m1256 -7 l262 -6 0 -519 c0 -285 -1 -518 -3 -518 -1 0
-242 16 -536 35 -293 19 -546 35 -562 35 l-29 0 0 490 0 490 303 0 c166 0 420
-3 565 -7z m-3608 -963 c157 -11 300 -23 318 -26 l32 -5 0 -414 c0 -228 -3
-415 -7 -415 -5 -1 -171 21 -370 47 l-363 48 0 399 0 398 53 -6 c28 -3 180
-15 337 -26z m3300 -255 c256 -19 489 -37 518 -41 l52 -5 0 -520 c0 -285 -3
-519 -7 -519 -3 0 -255 34 -558 75 -304 41 -555 75 -559 75 -3 0 -6 221 -6
490 l0 491 48 -6 c26 -3 256 -21 512 -40z"/>
</g>
</svg>
