<?xml version="1.0" encoding="UTF-8"?>
<svg width="76.27" height="76.27" data-name="Ebene 1" version="1.1" viewBox="0 0 76.27 76.27" xmlns="http://www.w3.org/2000/svg">
 <defs>
  <style>.cls-1{fill:#004480;}.cls-2{fill-rule:evenodd;fill:url(#Unbenannter_Verlauf_97);}</style>
  <linearGradient id="Unbenannter_Verlauf_97" x1="21.31" x2="83.8" y1="22.93" y2="66.69" gradientUnits="userSpaceOnUse">
   <stop stop-color="#71d7fc" offset=".19"/>
   <stop stop-color="#67caf1" offset=".29"/>
   <stop stop-color="#4ea9d5" offset=".47"/>
   <stop stop-color="#2574a9" offset=".7"/>
   <stop stop-color="#004480" offset=".89"/>
  </linearGradient>
  <clipPath id="clipPath6224">
   <rect x="80.178" y="-24.29" width="222.48" height="136.28" style="display:none;fill:#4c4c4c"/>
   <path class="powerclip" d="m-4.9987-5.005h290.3v86.27h-290.3zm85.177-19.285v136.28h222.48v-136.28z" style="fill:#4c4c4c"/>
  </clipPath>
 </defs>
 <g id="Photon_ALL_color" transform="translate(-.0012602 .0050019)" clip-path="url(#clipPath6224)">
  <g data-name="Photon_ALL_color">
   <g id="PHOTON">
    <path class="cls-1" transform="translate(-14.42,-6.68)" d="m266.56 61h7.22v-25.44a28.21 28.21 0 0 1 7.09-0.79c4 0 6.7 1.31 6.7 6.17v20.06h7.15v-20.26c0-9.19-5.05-12.8-13.72-12.8-4.85 0-10.89 0.73-14.44 2.1z"/>
    <path class="cls-1" transform="translate(-14.42,-6.68)" d="m253.7 44.81c0 6.17-1.38 10.11-7.81 10.11s-7.81-3.94-7.81-10.11 1.44-10 7.81-10 7.81 3.87 7.81 10zm-7.81 16.93c10.17 0 15-6.69 15-16.93 0-10.63-4.46-16.87-15-16.87-10.11 0-15.09 6.63-15.09 16.87 0 10.7 4.52 16.93 15.09 16.93z"/>
    <path class="cls-1" transform="translate(-14.42,-6.68)" d="m207.63 49.47c0 9.25 5.05 12.21 12.07 12.21a21.36 21.36 0 0 0 8.08-1.45l-1.12-6.82a17 17 0 0 1-7 1.44c-2.89 0-4.79-1.31-4.79-5.31v-14.11h11.68v-6.83h-11.7v-8.53h-7.22z"/>
    <path class="cls-1" transform="translate(-14.42,-6.68)" d="m194.76 44.81c0 6.17-1.37 10.11-7.81 10.11s-7.81-3.94-7.81-10.11 1.45-10 7.81-10 7.81 3.87 7.81 10zm-7.76 16.93c10.18 0 15-6.69 15-16.93 0-10.63-4.46-16.87-15-16.87-10.1 0-15.09 6.63-15.09 16.87 0 10.7 4.53 16.93 15.09 16.93z"/>
    <path class="cls-1" transform="translate(-14.42,-6.68)" d="m138.06 61h7.22v-25.44a27.34 27.34 0 0 1 7.09-0.79c4 0 6.69 1.31 6.69 6.17v20.06h7.15v-20.06c0-9.65-5.44-13-13.52-13a26 26 0 0 0-7.41 0.92v-13.78h-7.22z"/>
    <path class="cls-1" transform="translate(-14.42,-6.68)" d="m104.19 74.94h7.22v-14.12a15.1 15.1 0 0 0 5.45 0.92c9.91 0 15.55-6.36 15.55-17.39 0-10.63-5-16.41-16.27-16.41a36.81 36.81 0 0 0-12 2v45zm20.94-30.13c0 6.7-1.77 10.11-8.6 10.11a9.76 9.76 0 0 1-5.12-1.05v-18.38a15 15 0 0 1 5.06-0.72c6.49 0 8.66 2.62 8.66 10z"/>
   </g>
   <path id="Corona" class="cls-2" transform="translate(-14.42,-6.68)" d="m36.94 59.26c0.18 0.2 0.38 0.4 0.57 0.59l0.6 0.58-10.74 13c-0.61-0.54-1.21-1.1-1.79-1.68s-1.14-1.14-1.67-1.75l13-10.74zm4.49 3.74-8 14.87a37 37 0 0 1-4.07-2.72l10.69-13.15c0.45 0.33 0.91 0.63 1.38 0.92zm-7-7c0.28 0.46 0.59 0.92 0.92 1.37l-13.09 10.63a37.32 37.32 0 0 1-2.72-4.06l14.88-8zm10.76 8.83-4.95 16.09a38.29 38.29 0 0 1-4.51-1.87l7.92-14.91q0.76 0.35 1.53 0.63zm-12.59-12.65q0.28 0.78 0.63 1.53l-14.91 7.93a36.16 36.16 0 0 1-1.87-4.52zm16.62 13.64-1.69 16.8a39.17 39.17 0 0 1-4.8-1l4.87-16.12c0.53 0.13 1.07 0.23 1.62 0.32zm-17.67-17.67c0.08 0.54 0.19 1.08 0.32 1.62l-16.17 4.86a37.57 37.57 0 0 1-0.95-4.79zm-0.25-4.15v1.66l-16.8 1.63a38 38 0 0 1 0-4.89zm22.08 22.06 1.62 16.81a39.89 39.89 0 0 1-4.89 0l1.62-16.81a15.14 15.14 0 0 0 1.65 0zm4.13-0.56 4.87 16.17a39.17 39.17 0 0 1-4.8 1l-1.69-16.8c0.54-0.09 1.09-0.19 1.62-0.32zm-25.64-25.65c-0.13 0.54-0.24 1.08-0.32 1.63l-16.8-1.7a37.57 37.57 0 0 1 0.95-4.78l16.17 4.86zm29.59 24.29 7.92 14.91a39.46 39.46 0 0 1-4.52 1.87l-4.93-16.15q0.76-0.28 1.53-0.63zm-28.2-28.3c-0.23 0.5-0.45 1-0.64 1.53l-16.13-5a37.86 37.86 0 0 1 1.89-4.52l14.88 8zm31.79 26.16 10.69 13.11a40 40 0 0 1-4.07 2.72l-7.99-14.83c0.47-0.29 0.92-0.59 1.37-0.92zm-29.7-29.7c-0.33 0.45-0.64 0.9-0.92 1.37l-14.87-8a39.37 39.37 0 0 1 2.72-4.06zm45.85 37.7c-0.54 0.61-1.09 1.2-1.67 1.78s-1.18 1.14-1.79 1.68l-10.74-13.03 0.6-0.58 0.57-0.59zm-53.83-53.83 10.74 13-0.6 0.58c-0.19 0.19-0.39 0.39-0.57 0.59l-13-10.74c0.53-0.6 1.09-1.2 1.67-1.78s1.18-1.14 1.79-1.67zm58.2 47.76a37.32 37.32 0 0 1-2.72 4.07l-13.08-10.69c0.33-0.45 0.64-0.91 0.92-1.37l14.88 8zm-52.13-52.13 8 14.87c-0.47 0.29-0.93 0.6-1.38 0.92l-10.69-13.07a37 37 0 0 1 4.07-2.72zm55.22 45.32a36.16 36.16 0 0 1-1.87 4.52l-14.91-7.93q0.34-0.75 0.63-1.53zm-48.38-48.43 4.92 16.16q-0.78 0.28-1.53 0.63l-7.91-14.92a39.46 39.46 0 0 1 4.52-1.87zm50.08 41.15a37.57 37.57 0 0 1-1 4.79l-16.12-4.86c0.13-0.54 0.24-1.08 0.32-1.62zm-42.83-42.84 1.69 16.8c-0.55 0.09-1.09 0.2-1.62 0.32l-4.87-16.12a39.14 39.14 0 0 1 4.8-1zm43.08 35.37a36.12 36.12 0 0 1 0 4.88l-16.8-1.61v-1.66zm-35.61-35.62-1.62 16.81q-0.83 0-1.65 0l-1.62-16.81a39.89 39.89 0 0 1 4.89 0zm34.41 28.25a37.57 37.57 0 0 1 1 4.79l-16.8 1.7c-0.08-0.55-0.19-1.09-0.32-1.63zm-27-27-4.9 16.12c-0.53-0.12-1.08-0.23-1.62-0.32l1.69-16.8a39.14 39.14 0 0 1 4.8 0.94zm7 2.62-7.95 14.87c-0.51-0.24-1-0.45-1.53-0.64l4.93-16.15a39.46 39.46 0 0 1 4.52 1.87zm17.37 17.38a37.74 37.74 0 0 1 1.87 4.52l-16.14 5c-0.19-0.51-0.41-1-0.64-1.53zm-11.07-13.5-10.71 13.08c-0.45-0.32-0.91-0.63-1.38-0.92l8-14.88a37 37 0 0 1 4.07 2.72zm7.1 7.08a38.2 38.2 0 0 1 2.72 4.05l-14.86 8c-0.29-0.47-0.59-0.93-0.92-1.38l13.06-10.7zm-5.07-5.41c0.61 0.53 1.2 1.09 1.79 1.67s1.13 1.16 1.67 1.78l-13 10.75q-0.28-0.32-0.57-0.6l-0.6-0.58 10.74-13z" style="fill:url(#Unbenannter_Verlauf_97)"/>
  </g>
 </g>
</svg>
