<?xml version="1.0" encoding="UTF-8"?>
<!-- Created with Inkscape (http://www.inkscape.org/) -->
<svg width="127.38" height="146.7" version="1.1" viewBox="0 0 127.38 146.7" xmlns="http://www.w3.org/2000/svg">
 <g transform="translate(.042193 -.084386)">
  <path d="m30.126 92.993 15.907 9.0715-0.16877 15.949 18.227 10.928 47.805-28.1-0.33754-55.23-48.1-27.425-47.762 27.805 0.12658 20.59 13.839 8.101 0.16877 18.059-29.873-17.215 0.084386-38.564 63.542-36.877 63.289 36.455 0.46412 72.909-63.247 37.341-33.839-19.493z" style="fill:#ff6d21"/>
  <path d="m63.996 111.91-17.847-10.363-0.13713-0.12658 0.01055 0.85441-15.896-9.0565 0.0075-0.36548-0.37294-0.16409-0.23868-18.117 0.74587 0.49228-0.01492-20.765 33.355-19.243 33.296 19.035 0.02984 38.427-32.61 19.363-0.26851-17.841 17.871-10.383-0.089505-20.526-17.841-10.562-18.229 10.532v20.556l17.782 10.442z" style="fill:#ff6d21"/>
  <path d="m64.109 94.026-0.30581 0.19393-0.32818-0.13426 0.45071 17.789 0.23206 0.11603 0.22151-0.13185z" style="fill:#ff6d21"/>
 </g>
</svg>
