<?xml version="1.0" encoding="UTF-8"?>
<svg width="553.99" height="220.86" version="1.1" xmlns="http://www.w3.org/2000/svg" xmlns:cc="http://creativecommons.org/ns#" xmlns:dc="http://purl.org/dc/elements/1.1/" xmlns:rdf="http://www.w3.org/1999/02/22-rdf-syntax-ns#">
 <title>Simple DirectMedia Layer</title>
 <metadata>
  <rdf:RDF>
   <cc:Work rdf:about="">
    <dc:format>image/svg+xml</dc:format>
    <dc:type rdf:resource="http://purl.org/dc/dcmitype/StillImage"/>
    <dc:title>Simple DirectMedia Layer</dc:title>
   </cc:Work>
  </rdf:RDF>
 </metadata>
 <g transform="translate(-727.01 -289.81)">
  <path d="m1281 506.9h-149.8v-213.1h56.36v172.5h93.43zm-164.5-106.4c-2e-4 19.85-4.571 37.62-13.71 53.32-9.143 15.7-20.7 27.74-34.66 36.14-11.65 7.157-24.34 11.76-38.05 13.81-13.71 2.052-28.31 3.077-43.78 3.077h-70.22v-213.1h69.62c15.77 2.6e-4 30.54 0.954 44.3 2.863s26.67 6.537 38.73 13.88c14.77 8.97 26.42 21.07 34.96 36.29 8.539 15.22 12.81 33.14 12.81 53.75zm-57.87-0.4298c-1e-4 -14.03-2.537-26.03-7.61-36-5.074-9.972-12.88-17.77-23.43-23.4-7.635-4.008-15.65-6.202-24.04-6.584-8.389-0.3811-18.41-0.5729-30.06-0.5729h-1.055v133.4h1.055c12.66 1.4e-4 23.33-0.214 32.02-0.6439 8.69-0.4298 16.95-2.982 24.79-7.658 9.243-5.534 16.28-13.17 21.1-22.9 4.822-9.733 7.233-21.61 7.234-35.64zm-250.1 110.6c-17.18 0-32.27-1.574-45.28-4.723s-25.09-7.062-36.24-11.74v-50.67h5.124c11.25 9.065 23.66 16.03 37.22 20.9 13.56 4.867 26.72 7.3 39.48 7.3 3.215 0 7.459-0.3338 12.73-1.001 5.274-0.6676 9.519-1.718 12.73-3.149 3.918-1.622 7.233-3.889 9.946-6.799 2.712-2.91 4.069-6.751 4.069-11.52-1.4e-4 -5.344-2.21-9.686-6.631-13.03-4.421-3.34-9.695-5.773-15.82-7.3-7.635-1.908-15.8-3.722-24.49-5.439-8.69-1.718-16.8-3.817-24.34-6.298-17.38-5.821-29.84-13.65-37.37-23.47-7.535-9.829-11.3-22.14-11.3-36.93 0-19.94 8.891-36.09 26.67-48.45 17.78-12.36 39.98-18.54 66.61-18.54 13.36 2.4e-4 26.65 1.288 39.86 3.865s25.04 6.06 35.49 10.45v48.67h-4.973c-8.339-6.775-18.51-12.5-30.52-17.18-12.01-4.676-24.34-7.014-37-7.014-4.923 1e-4 -9.343 0.3338-13.26 1.001-3.918 0.6688-8.037 1.956-12.36 3.865-3.516 1.527-6.555 3.793-9.117 6.799s-3.843 6.37-3.843 10.09c-1.4e-4 5.439 2.034 9.757 6.103 12.95 4.069 3.197 11.93 6.083 23.58 8.66 7.535 1.622 14.79 3.197 21.78 4.723 6.982 1.527 14.44 3.626 22.38 6.298 15.57 5.344 27.15 12.52 34.74 21.54 7.585 9.018 11.38 20.92 11.38 35.71-1e-4 21.18-8.766 38.22-26.3 51.1-17.53 12.88-41.22 19.32-71.05 19.32z" fill="#173556"/>
 </g>
</svg>
