<?xml version="1.0" encoding="UTF-8"?>
<svg id="Logo" width="85.56" height="96.64" version="1.1" viewBox="0 0 85.56 96.64" xml:space="preserve" xmlns="http://www.w3.org/2000/svg" xmlns:cc="http://creativecommons.org/ns#" xmlns:dc="http://purl.org/dc/elements/1.1/" xmlns:rdf="http://www.w3.org/1999/02/22-rdf-syntax-ns#"><metadata><rdf:RDF><cc:Work rdf:about=""><dc:format>image/svg+xml</dc:format><dc:type rdf:resource="http://purl.org/dc/dcmitype/StillImage"/><dc:title/></cc:Work></rdf:RDF></metadata>
<style type="text/css">
	.st0{fill:#FFFFFF;}
	.st1{fill:#CCCCCC;}
	.st2{fill:#A6A6A6;}
</style>





<path class="st1" d="m85.56 67.62v-45.08l-39.04-22.54v17.29l15.3 8.83c0.55 0.31 0.57 1.17 0 1.48l-18.18 10.5c-0.55 0.32-1.2 0.3-1.71 0l-18.18-10.5c-0.56-0.3-0.57-1.18 0-1.48l15.29-8.83v-17.29l-39.04 22.54v45.08-0.21 0.21l14.97-8.64v-17.66c-0.01-0.63 0.73-1.08 1.28-0.74l18.18 10.5c0.55 0.32 0.86 0.89 0.86 1.48v20.99c0.01 0.63-0.73 1.08-1.28 0.74l-15.3-8.83-14.97 8.64 39.04 22.54 39.04-22.54-14.97-8.64-15.3 8.83c-0.54 0.33-1.3-0.1-1.28-0.74v-20.99c0-0.63 0.35-1.19 0.86-1.48l18.18-10.5c0.54-0.33 1.3 0.09 1.28 0.74v17.66z"/>
<path class="st2" d="m42.78 96.64 39.04-22.54-14.97-8.64-15.3 8.83c-0.54 0.33-1.3-0.1-1.28-0.74v-20.99c0-0.63 0.35-1.19 0.86-1.48l18.18-10.5c0.54-0.33 1.3 0.09 1.28 0.74v17.66l14.97 8.64v-45.08l-42.78 24.7z"/>
<path class="st0" d="m46.52 0v17.29l15.3 8.83c0.55 0.31 0.57 1.17 0 1.48l-18.18 10.5c-0.55 0.32-1.2 0.3-1.71 0l-18.18-10.5c-0.56-0.3-0.57-1.18 0-1.48l15.29-8.83v-17.29l-39.04 22.54 42.78 24.7 42.78-24.7z"/>
<path class="st1" d="m34.02 74.29-15.3-8.83-14.97 8.64 39.04 22.54v-49.4l-42.78-24.7v45.08-0.21 0.21l14.97-8.64v-17.66c-0.01-0.63 0.73-1.08 1.28-0.74l18.18 10.5c0.55 0.32 0.86 0.89 0.86 1.48v20.99c0.01 0.63-0.73 1.08-1.28 0.74z"/>

</svg>
